<?xml version="1.0" standalone="no"?>
<!DOCTYPE svg PUBLIC "-//W3C//DTD SVG 20010904//EN"
 "http://www.w3.org/TR/2001/REC-SVG-20010904/DTD/svg10.dtd">
<svg version="1.0" xmlns="http://www.w3.org/2000/svg"
 width="329.000000pt" height="329.000000pt" viewBox="0 0 329.000000 329.000000"
 preserveAspectRatio="xMidYMid meet">
<metadata>
Created by potrace 1.11, written by Peter Selinger 2001-2013
</metadata>
<g transform="translate(0.000000,329.000000) scale(0.100000,-0.100000)"
fill="#000000" stroke="none">
<path d="M1406 3145 c-51 -18 -98 -65 -102 -101 -6 -53 51 -274 75 -294 3 -3
17 -26 30 -52 13 -27 28 -48 32 -48 5 0 9 -6 9 -13 0 -38 212 -211 305 -249
17 -6 32 -14 35 -17 9 -10 68 -41 78 -41 5 0 27 -8 48 -17 22 -9 41 -17 44
-18 87 -25 159 -80 242 -184 97 -121 156 -259 178 -415 13 -95 9 -263 -9 -308
-6 -16 -8 -28 -6 -28 3 0 -9 -37 -25 -81 -94 -259 -270 -431 -517 -506 -43
-13 -90 -17 -178 -16 -66 0 -127 3 -135 5 -8 3 -28 8 -45 12 -31 8 -45 13
-110 41 -104 46 -235 157 -304 260 -94 140 -142 290 -146 465 -4 146 15 253
64 371 31 74 100 191 121 204 5 3 10 34 10 69 0 79 -29 139 -89 181 -34 24
-54 30 -110 33 -39 2 -77 -1 -89 -7 -18 -10 -65 -61 -163 -178 -10 -13 -16
-23 -11 -23 4 0 0 -6 -8 -13 -20 -16 -112 -195 -143 -277 -59 -159 -72 -239
-72 -465 0 -188 3 -220 24 -305 42 -169 100 -300 198 -448 94 -142 282 -316
413 -382 117 -59 139 -69 200 -89 36 -12 72 -24 80 -28 8 -3 22 -7 30 -8 8 -1
53 -8 99 -15 122 -19 363 -9 466 19 216 59 367 141 544 296 43 39 82 80 85 92
4 13 12 23 19 23 15 1 114 152 161 247 48 97 72 160 103 278 26 95 27 112 27
320 0 206 -2 226 -27 320 -39 148 -92 274 -161 384 -15 22 -23 41 -19 41 5 0
3 4 -3 8 -10 6 -107 123 -122 147 -13 20 -158 141 -217 182 -78 52 -175 101
-216 108 -18 3 -39 11 -46 17 -7 6 -13 7 -13 3 0 -4 -7 -2 -15 5 -9 7 -18 10
-21 7 -3 -3 -26 3 -50 13 -24 11 -44 17 -44 15 0 -8 -113 68 -131 87 -9 10
-20 18 -25 19 -13 0 -84 92 -118 151 -21 38 -28 62 -27 99 1 43 -3 51 -32 72
-33 25 -89 47 -116 47 -9 -1 -34 -7 -55 -15z"/>
</g>
</svg>
